<svg width="170" height="57" viewBox="0 0 170 57" fill="none" xmlns="http://www.w3.org/2000/svg">
<path d="M106.608 34.6631C103.128 34.6631 100.292 31.8099 100.292 28.3028C100.292 24.7957 103.126 21.9426 106.608 21.9426C110.091 21.9426 112.923 24.7957 112.923 28.3028C112.923 31.8099 110.089 34.6631 106.608 34.6631ZM106.608 17.2577C100.557 17.2577 95.6406 22.2168 95.6406 28.3028C95.6406 34.3888 100.565 39.348 106.608 39.348C112.652 39.348 117.576 34.3888 117.576 28.3028C117.576 22.2168 112.652 17.2577 106.608 17.2577Z" fill="#7968FA"/>
<path d="M159.03 34.6631C155.549 34.6631 152.716 31.8099 152.716 28.3028C152.716 24.7957 155.549 21.9426 159.03 21.9426C162.511 21.9426 165.346 24.7957 165.346 28.3028C165.346 31.8099 162.513 34.6631 159.03 34.6631ZM159.03 17.2577C152.979 17.2577 148.062 22.2168 148.062 28.3028C148.062 34.3888 152.986 39.348 159.03 39.348C165.074 39.348 169.998 34.3888 169.998 28.3028C169.998 22.2168 165.074 17.2577 159.03 17.2577Z" fill="#7968FA"/>
<path d="M80.3817 34.6632C76.901 34.6632 74.0673 31.8101 74.0673 28.303C74.0673 24.7959 76.901 21.9427 80.3817 21.9427C83.8623 21.9427 86.6978 24.7959 86.6978 28.303C86.6978 31.8101 83.8641 34.6632 80.3817 34.6632ZM86.6978 19.2812C84.91 18.0067 82.7373 17.2508 80.3817 17.2508C74.3309 17.2508 69.4141 22.21 69.4141 28.2959C69.4141 34.3819 74.338 39.3411 80.3817 39.3411C82.7302 39.3411 84.9083 38.5852 86.6978 37.3107V48.9781H91.3563V15.0042H86.6978V19.2812Z" fill="#7968FA"/>
<path d="M132.818 34.6631C129.338 34.6631 126.504 31.8099 126.504 28.3028C126.504 24.7958 129.338 21.9426 132.818 21.9426C136.299 21.9426 139.133 24.7958 139.133 28.3028C139.133 31.8099 136.299 34.6631 132.818 34.6631ZM139.128 19.2828C137.34 18.0083 135.167 17.2524 132.811 17.2524C126.761 17.2524 121.844 22.2116 121.844 28.2976C121.844 34.3836 126.768 39.3427 132.811 39.3427C135.16 39.3427 137.338 38.5868 139.128 37.3123V41.4487H143.786V7.47299H139.128V19.2811V19.2828Z" fill="#7968FA"/>
<path d="M28.0338 55.2997C43.2618 55.2997 55.6066 42.9547 55.6066 27.7263C55.6066 12.498 43.2618 0.153015 28.0338 0.153015C12.8057 0.153015 0.460938 12.498 0.460938 27.7263C0.460938 42.9547 12.8057 55.2997 28.0338 55.2997Z" fill="#7968FA"/>
<path d="M31.0139 16.6513C31.5642 15.6299 32.1003 14.4257 32.1003 13.6223C32.1003 13.6223 32.4185 11.7747 30.2739 11.4284C28.1292 11.0804 27.6581 13.0739 27.6581 13.0739L27.3487 15.6686C23.8346 14.8916 20.1219 14.6701 16.2633 15.0902C16.1912 14.816 16.1367 14.5962 16.1121 14.4697C15.9785 13.8122 14.9871 11.2333 12.4697 12.1597C10.1493 13.0141 11.2585 15.5473 11.4466 15.9411C8.23318 16.7216 4.94061 17.9434 1.59706 19.6591C-3.32508 36.4773 6.695 48.5192 16.7801 53.1778C18.9055 45.9245 21.3489 39.9669 24.9245 37.7272C28.4386 35.5263 33.6508 36.5512 38.9614 37.8239C48.6423 40.1462 58.6465 44.6869 58.5428 44.5041L62.9604 41.7863C62.0657 38.8717 51.0313 22.797 31.0139 16.6495V16.6513Z" fill="white"/>
<path d="M54.6172 42.6512L60.9545 38.5552L62.8794 41.5173L58.5479 44.5041L54.6172 42.6512Z" fill="#7968FA"/>
<path d="M55.5552 42.5879L60.8149 39.188L62.2476 41.3925L58.4997 43.9767L55.5552 42.5879ZM28.0334 0.919404C43.009 0.919404 55.1474 13.0598 55.1474 28.0339C55.1474 28.9111 55.1035 29.7778 55.0226 30.6321C54.6025 30.219 54.17 29.8041 53.72 29.3875C51.4997 27.329 48.9051 25.2265 45.943 23.2611H46.4967C46.7499 23.2611 46.9555 23.0554 46.9555 22.8023C46.9555 22.5491 46.7499 22.3434 46.4967 22.3434H44.5208C40.7747 20.0036 36.4854 17.9082 31.674 16.3787C31.8604 16.0078 32.0379 15.6246 32.1838 15.2484C32.5126 14.4011 32.7481 13.3357 32.4299 12.4849C32.1838 11.8239 31.5897 11.1664 30.3574 10.966C29.1092 10.7639 28.3006 11.2508 27.8242 11.8134C27.5254 12.165 27.2546 12.6853 27.2001 13.1441L26.9646 15.1183C23.672 14.4397 20.2125 14.2446 16.6316 14.5944C16.6087 14.5013 16.5912 14.4239 16.5789 14.3677C16.4997 13.9809 16.1886 13.0844 15.5364 12.3952C14.6715 11.4811 13.5394 11.2754 12.3317 11.7202C11.6092 11.9856 11.1364 12.4128 10.8076 13.0387C10.4455 13.7295 10.5035 14.7737 10.8235 15.6246C8.12506 16.3172 5.37217 17.321 2.58589 18.6588C6.40055 8.30276 16.3538 0.919404 28.0334 0.919404ZM0 28.0339C0 43.5161 12.5515 56.0678 28.0334 56.0678C38.2398 56.0678 47.17 50.6129 52.0711 42.4631L52.2574 42.5334C54.1014 43.2331 55.6414 43.8536 56.7137 44.2896C57.2481 44.5076 58.215 44.8926 58.2958 44.9189C58.5261 44.9963 58.6843 44.9769 58.8232 44.868L63.1986 42.1765C63.3762 42.0675 63.4571 41.8513 63.3973 41.6509C63.2004 41.0093 62.6818 40.118 62.4867 39.7857C62.0156 38.9911 61.3757 38.0243 60.5688 36.9396C59.3681 35.3258 57.7931 33.4448 55.8558 31.4636C55.993 30.3386 56.0668 29.1941 56.0668 28.0321C56.0668 12.5517 43.5153 0 28.0334 0C12.5515 0 0 12.5517 0 28.0339ZM30.7863 16.1045C29.9864 15.8654 28.675 15.5068 27.8611 15.3169L28.1055 13.2813C28.1459 12.9508 28.3252 12.6378 28.5203 12.4058C28.8139 12.0595 29.3132 11.7237 30.2097 11.8696C31.1203 12.0173 31.4402 12.455 31.5703 12.8048C31.7531 13.2936 31.667 14.0495 31.3295 14.9161C31.1783 15.3046 30.9884 15.7107 30.7845 16.1045H30.7863ZM28.0334 55.1484C24.2293 55.1484 20.6097 54.3643 17.326 52.951C18.3561 49.4755 19.4566 46.3288 20.7205 43.7763C22.0301 41.127 23.4892 39.1687 25.168 38.1175C26.8099 37.0891 28.8807 36.7955 31.2433 36.9326C33.6042 37.0697 36.1989 37.6358 38.8551 38.2722C43.22 39.3199 47.6534 40.8212 51.1939 42.1361C46.4334 49.9396 37.8425 55.1502 28.0334 55.1502V55.1484ZM39.0678 37.3791C36.4134 36.7427 33.7466 36.1591 31.2943 36.015C28.8438 35.8726 26.5515 36.1661 24.6793 37.3387C22.7843 38.5253 21.2338 40.6647 19.896 43.3684C18.6145 45.9596 17.5053 49.1204 16.4804 52.5695C7.28478 48.2327 0.919387 38.8769 0.919387 28.0339C0.919387 25.1948 1.35711 22.4577 2.16575 19.8858C5.25791 18.3301 8.30085 17.1997 11.2735 16.4543L13.7099 19.7505C13.8611 19.9544 14.1477 19.9966 14.3498 19.8472C14.5537 19.696 14.5959 19.4094 14.4465 19.2073L12.047 15.9604C11.5178 15.2431 11.3139 14.0477 11.6198 13.4641C11.8307 13.0615 12.1138 12.7767 12.6482 12.5798C13.4955 12.2687 14.2496 12.3706 14.8702 13.0246C15.3747 13.5572 15.6261 14.278 15.6806 14.5505C15.7526 14.8986 16.0216 15.8918 16.2677 16.7743L16.7459 18.4777C16.8162 18.7203 17.0693 18.8627 17.3119 18.7924C17.5545 18.7238 17.6969 18.4689 17.6266 18.2263L17.1484 16.5299L16.8636 15.4927C20.7908 15.1253 24.558 15.433 28.1055 16.3172C33.6253 17.6937 38.5141 19.8489 42.7506 22.3434H23.1868C22.9337 22.3434 22.728 22.5491 22.728 22.8023C22.728 23.0554 22.9337 23.2611 23.1868 23.2611H23.9234C24.0869 23.3912 24.1484 23.4509 24.2117 23.5318C24.3348 23.6918 24.4596 23.9361 24.4596 24.2825C24.4596 24.729 24.4191 25.8751 24.9711 26.9053C25.7042 28.2712 27.1544 28.8549 28.9581 28.8549C30.7617 28.8549 32.233 28.3609 32.9766 26.8016C33.4161 25.8787 33.4864 24.7606 33.497 23.741C33.8574 23.458 34.441 23.3595 34.898 23.3595C35.5854 23.3595 35.9739 23.5213 36.1883 23.7006C36.1971 24.7307 36.2657 25.8664 36.7104 26.8016C37.4523 28.3609 39.001 28.8549 40.729 28.8549C42.4571 28.8549 43.9355 28.3609 44.716 26.9053C45.2679 25.8751 45.2275 24.7272 45.2275 24.2825C45.2275 24.1453 45.2469 24.0258 45.2785 23.9186C48.2599 25.8857 50.8704 27.9935 53.0994 30.059C56 32.7487 58.2536 35.3628 59.8358 37.4899C60.0537 37.7817 60.2559 38.063 60.4493 38.3354L54.2895 42.333C53.7569 42.1256 53.1891 41.9041 52.5861 41.6773C48.8805 40.2709 43.939 38.5481 39.0713 37.3809L39.0678 37.3791Z" fill="black"/>
</svg>
